<svg xmlns="http://www.w3.org/2000/svg" xmlns:xlink="http://www.w3.org/1999/xlink" width="500" zoomAndPan="magnify" viewBox="0 0 375 374.999991" height="500" preserveAspectRatio="xMidYMid meet" version="1.0"><defs><clipPath id="92676ed4b4"><path d="M 82.5 0 L 292.5 0 L 292.5 375 L 82.5 375 Z M 82.5 0 " clip-rule="nonzero"/></clipPath><clipPath id="d7860d2e1f"><path d="M 130.679688 48.617188 L 244.679688 48.617188 L 244.679688 162.617188 L 130.679688 162.617188 Z M 130.679688 48.617188 " clip-rule="nonzero"/></clipPath><clipPath id="8f69970f3e"><path d="M 112.5 30.4375 L 262.5 30.4375 L 262.5 180.4375 L 112.5 180.4375 Z M 112.5 30.4375 " clip-rule="nonzero"/></clipPath><clipPath id="5044f2597d"><path d="M 140.789062 54.914062 L 234.539062 54.914062 L 234.539062 148.664062 L 140.789062 148.664062 Z M 140.789062 54.914062 " clip-rule="nonzero"/></clipPath></defs><g clip-path="url(#92676ed4b4)"><path fill="#00bf63" d="M 187.441406 0.335938 C 129.484375 0.335938 82.5 47.320312 82.5 105.273438 C 82.5 163.226562 187.441406 374.664062 187.441406 374.664062 C 187.441406 374.664062 292.378906 163.230469 292.378906 105.273438 C 292.378906 47.316406 245.398438 0.335938 187.441406 0.335938 Z M 187.441406 151.851562 C 161.71875 151.851562 140.867188 130.996094 140.867188 105.277344 C 140.867188 79.5625 161.71875 58.703125 187.441406 58.703125 C 213.160156 58.703125 234.015625 79.554688 234.015625 105.277344 C 234.015625 131.003906 213.164062 151.851562 187.441406 151.851562 Z M 187.441406 151.851562 " fill-opacity="1" fill-rule="nonzero"/></g><g clip-path="url(#d7860d2e1f)"><path fill="#ffffff" d="M 187.679688 48.617188 C 156.1875 48.617188 130.679688 74.125 130.679688 105.617188 C 130.679688 137.109375 156.1875 162.617188 187.679688 162.617188 C 219.171875 162.617188 244.679688 137.109375 244.679688 105.617188 C 244.679688 74.125 219.171875 48.617188 187.679688 48.617188 Z M 187.679688 151.21875 C 162.484375 151.21875 142.078125 130.8125 142.078125 105.617188 C 142.078125 80.425781 162.484375 60.019531 187.679688 60.019531 C 212.875 60.019531 233.28125 80.425781 233.28125 105.617188 C 233.28125 130.8125 212.875 151.21875 187.679688 151.21875 Z M 187.679688 151.21875 " fill-opacity="1" fill-rule="nonzero"/></g><g clip-path="url(#8f69970f3e)"><path fill="#ffffff" d="M 262.5 105.4375 C 262.5 106.667969 262.46875 107.894531 262.410156 109.121094 C 262.347656 110.34375 262.257812 111.570312 262.140625 112.789062 C 262.019531 114.011719 261.867188 115.230469 261.6875 116.445312 C 261.507812 117.65625 261.296875 118.867188 261.058594 120.070312 C 260.820312 121.273438 260.550781 122.472656 260.253906 123.664062 C 259.953125 124.851562 259.625 126.035156 259.269531 127.210938 C 258.914062 128.386719 258.527344 129.550781 258.117188 130.707031 C 257.703125 131.863281 257.261719 133.007812 256.789062 134.140625 C 256.320312 135.273438 255.824219 136.394531 255.300781 137.503906 C 254.773438 138.617188 254.222656 139.710938 253.644531 140.792969 C 253.066406 141.875 252.460938 142.945312 251.828125 143.996094 C 251.199219 145.050781 250.542969 146.085938 249.859375 147.105469 C 249.179688 148.128906 248.472656 149.128906 247.742188 150.117188 C 247.007812 151.101562 246.253906 152.070312 245.476562 153.019531 C 244.695312 153.96875 243.894531 154.898438 243.070312 155.804688 C 242.246094 156.714844 241.402344 157.605469 240.53125 158.472656 C 239.664062 159.339844 238.777344 160.1875 237.867188 161.011719 C 236.957031 161.835938 236.027344 162.636719 235.078125 163.414062 C 234.128906 164.195312 233.164062 164.949219 232.175781 165.679688 C 231.191406 166.410156 230.1875 167.117188 229.167969 167.800781 C 228.148438 168.480469 227.109375 169.136719 226.058594 169.769531 C 225.003906 170.398438 223.9375 171.003906 222.855469 171.582031 C 221.773438 172.160156 220.675781 172.714844 219.566406 173.238281 C 218.457031 173.761719 217.335938 174.261719 216.203125 174.730469 C 215.066406 175.199219 213.921875 175.640625 212.765625 176.054688 C 211.609375 176.46875 210.445312 176.851562 209.269531 177.210938 C 208.097656 177.566406 206.914062 177.894531 205.722656 178.191406 C 204.53125 178.488281 203.335938 178.757812 202.132812 178.996094 C 200.929688 179.238281 199.71875 179.445312 198.503906 179.628906 C 197.289062 179.808594 196.074219 179.957031 194.851562 180.078125 C 193.628906 180.199219 192.40625 180.289062 191.179688 180.347656 C 189.953125 180.410156 188.726562 180.4375 187.5 180.4375 C 186.273438 180.4375 185.046875 180.410156 183.820312 180.347656 C 182.59375 180.289062 181.371094 180.199219 180.148438 180.078125 C 178.925781 179.957031 177.710938 179.808594 176.496094 179.628906 C 175.28125 179.445312 174.070312 179.238281 172.867188 178.996094 C 171.664062 178.757812 170.46875 178.488281 169.277344 178.191406 C 168.085938 177.894531 166.902344 177.566406 165.730469 177.210938 C 164.554688 176.851562 163.390625 176.46875 162.234375 176.054688 C 161.078125 175.640625 159.933594 175.199219 158.796875 174.730469 C 157.664062 174.261719 156.542969 173.761719 155.433594 173.238281 C 154.324219 172.714844 153.226562 172.160156 152.144531 171.582031 C 151.0625 171.003906 149.996094 170.398438 148.941406 169.769531 C 147.890625 169.136719 146.851562 168.480469 145.832031 167.800781 C 144.8125 167.117188 143.808594 166.410156 142.824219 165.679688 C 141.835938 164.949219 140.871094 164.195312 139.921875 163.414062 C 138.972656 162.636719 138.042969 161.835938 137.132812 161.011719 C 136.222656 160.1875 135.335938 159.339844 134.46875 158.472656 C 133.597656 157.605469 132.753906 156.714844 131.929688 155.804688 C 131.105469 154.898438 130.304688 153.96875 129.523438 153.019531 C 128.746094 152.070312 127.992188 151.101562 127.257812 150.117188 C 126.527344 149.128906 125.820312 148.128906 125.140625 147.105469 C 124.457031 146.085938 123.800781 145.050781 123.171875 143.996094 C 122.539062 142.945312 121.933594 141.875 121.355469 140.792969 C 120.777344 139.710938 120.226562 138.617188 119.699219 137.503906 C 119.175781 136.394531 118.679688 135.273438 118.210938 134.140625 C 117.738281 133.007812 117.296875 131.863281 116.882812 130.707031 C 116.46875 129.550781 116.085938 128.386719 115.730469 127.210938 C 115.375 126.035156 115.046875 124.851562 114.746094 123.664062 C 114.449219 122.472656 114.179688 121.273438 113.941406 120.070312 C 113.703125 118.867188 113.492188 117.65625 113.3125 116.445312 C 113.132812 115.230469 112.980469 114.011719 112.859375 112.789062 C 112.742188 111.570312 112.652344 110.34375 112.589844 109.121094 C 112.53125 107.894531 112.5 106.667969 112.5 105.4375 C 112.5 104.210938 112.53125 102.984375 112.589844 101.757812 C 112.652344 100.53125 112.742188 99.308594 112.859375 98.085938 C 112.980469 96.867188 113.132812 95.648438 113.3125 94.433594 C 113.492188 93.21875 113.703125 92.011719 113.941406 90.808594 C 114.179688 89.605469 114.449219 88.40625 114.746094 87.214844 C 115.046875 86.023438 115.375 84.84375 115.730469 83.667969 C 116.085938 82.492188 116.46875 81.328125 116.882812 80.171875 C 117.296875 79.015625 117.738281 77.871094 118.210938 76.738281 C 118.679688 75.605469 119.175781 74.480469 119.699219 73.371094 C 120.226562 72.261719 120.777344 71.167969 121.355469 70.085938 C 121.933594 69 122.539062 67.933594 123.171875 66.882812 C 123.800781 65.828125 124.457031 64.792969 125.140625 63.769531 C 125.820312 62.75 126.527344 61.746094 127.257812 60.761719 C 127.992188 59.777344 128.746094 58.808594 129.523438 57.859375 C 130.304688 56.910156 131.105469 55.980469 131.929688 55.070312 C 132.753906 54.164062 133.597656 53.273438 134.46875 52.40625 C 135.335938 51.539062 136.222656 50.691406 137.132812 49.867188 C 138.042969 49.042969 138.972656 48.242188 139.921875 47.464844 C 140.871094 46.683594 141.835938 45.929688 142.824219 45.199219 C 143.808594 44.46875 144.8125 43.761719 145.832031 43.078125 C 146.851562 42.398438 147.890625 41.742188 148.941406 41.109375 C 149.996094 40.476562 151.0625 39.875 152.144531 39.296875 C 153.226562 38.714844 154.324219 38.164062 155.433594 37.640625 C 156.542969 37.113281 157.664062 36.617188 158.796875 36.148438 C 159.933594 35.679688 161.078125 35.238281 162.234375 34.824219 C 163.390625 34.410156 164.554688 34.023438 165.730469 33.667969 C 166.902344 33.3125 168.085938 32.984375 169.277344 32.6875 C 170.46875 32.386719 171.664062 32.121094 172.867188 31.878906 C 174.070312 31.640625 175.28125 31.429688 176.496094 31.25 C 177.710938 31.070312 178.925781 30.921875 180.148438 30.800781 C 181.371094 30.679688 182.59375 30.589844 183.820312 30.53125 C 185.046875 30.46875 186.273438 30.4375 187.5 30.4375 C 188.726562 30.4375 189.953125 30.46875 191.179688 30.53125 C 192.40625 30.589844 193.628906 30.679688 194.851562 30.800781 C 196.074219 30.921875 197.289062 31.070312 198.503906 31.25 C 199.71875 31.429688 200.929688 31.640625 202.132812 31.878906 C 203.335938 32.121094 204.53125 32.386719 205.722656 32.6875 C 206.914062 32.984375 208.097656 33.3125 209.269531 33.667969 C 210.445312 34.023438 211.609375 34.410156 212.765625 34.824219 C 213.921875 35.238281 215.066406 35.679688 216.203125 36.148438 C 217.335938 36.617188 218.457031 37.113281 219.566406 37.640625 C 220.675781 38.164062 221.773438 38.714844 222.855469 39.296875 C 223.9375 39.875 225.003906 40.476562 226.058594 41.109375 C 227.109375 41.742188 228.148438 42.398438 229.167969 43.078125 C 230.1875 43.761719 231.191406 44.46875 232.175781 45.199219 C 233.164062 45.929688 234.128906 46.683594 235.078125 47.464844 C 236.027344 48.242188 236.957031 49.042969 237.867188 49.867188 C 238.777344 50.691406 239.664062 51.539062 240.53125 52.40625 C 241.402344 53.273438 242.246094 54.164062 243.070312 55.070312 C 243.894531 55.980469 244.695312 56.910156 245.476562 57.859375 C 246.253906 58.808594 247.007812 59.777344 247.742188 60.761719 C 248.472656 61.746094 249.179688 62.75 249.859375 63.769531 C 250.542969 64.792969 251.199219 65.828125 251.828125 66.882812 C 252.460938 67.933594 253.066406 69 253.644531 70.085938 C 254.222656 71.167969 254.773438 72.261719 255.300781 73.371094 C 255.824219 74.480469 256.320312 75.605469 256.789062 76.738281 C 257.261719 77.871094 257.703125 79.015625 258.117188 80.171875 C 258.527344 81.328125 258.914062 82.492188 259.269531 83.667969 C 259.625 84.84375 259.953125 86.023438 260.253906 87.214844 C 260.550781 88.40625 260.820312 89.605469 261.058594 90.808594 C 261.296875 92.011719 261.507812 93.21875 261.6875 94.433594 C 261.867188 95.648438 262.019531 96.867188 262.140625 98.085938 C 262.257812 99.308594 262.347656 100.53125 262.410156 101.757812 C 262.46875 102.984375 262.5 104.210938 262.5 105.4375 Z M 262.5 105.4375 " fill-opacity="1" fill-rule="nonzero"/></g><g clip-path="url(#5044f2597d)"><path fill="#00bf63" d="M 175.945312 72.070312 C 175.945312 65.808594 181.257812 54.914062 187.664062 54.914062 C 194.257812 54.914062 199.382812 65.808594 199.382812 72.070312 L 199.382812 84.210938 L 231.941406 105.910156 C 233.570312 106.988281 234.539062 108.820312 234.539062 110.78125 L 234.539062 121.160156 C 234.539062 123.15625 232.582031 124.566406 230.675781 123.945312 L 199.382812 113.507812 L 199.382812 128.15625 L 209.929688 136.066406 C 210.664062 136.617188 211.101562 137.496094 211.101562 138.410156 L 211.101562 146.101562 C 211.101562 147.527344 209.949219 148.664062 208.539062 148.664062 C 208.300781 148.664062 208.0625 148.628906 207.824219 148.574219 L 187.664062 142.804688 L 167.503906 148.574219 C 167.265625 148.644531 167.027344 148.664062 166.792969 148.664062 C 165.363281 148.664062 164.226562 147.511719 164.226562 146.101562 L 164.226562 138.410156 C 164.226562 137.496094 164.667969 136.617188 165.398438 136.066406 L 175.945312 128.15625 L 175.945312 113.507812 L 144.652344 123.945312 C 142.75 124.566406 140.789062 123.15625 140.789062 121.160156 L 140.789062 110.78125 C 140.789062 108.820312 141.761719 106.988281 143.390625 105.910156 L 175.945312 84.210938 Z M 175.945312 72.070312 " fill-opacity="1" fill-rule="nonzero"/></g></svg>